<svg id="Layer_1" data-name="Layer 1" xmlns="http://www.w3.org/2000/svg" viewBox="0 0 371.23 86.68"><defs><style>.cls-1{fill:#f20544;}</style></defs><title>signup_title</title><path d="M58.9,207.14a18.49,18.49,0,0,1-3.42,11.12,20.2,20.2,0,0,1-9.57,7.05,42.13,42.13,0,0,1-14.83,2.33,48.3,48.3,0,0,1-18.4-3.4V206.69a36.27,36.27,0,0,0,8.89,4.76,26.22,26.22,0,0,0,9.06,1.81,9,9,0,0,0,4.92-1.14,3.73,3.73,0,0,0,1.74-3.33,4.53,4.53,0,0,0-.87-2.75,8.72,8.72,0,0,0-2.64-2.21A50.26,50.26,0,0,0,27.24,201q-15.45-5.94-15.45-19.2A18,18,0,0,1,18.84,167q7.07-5.57,18.94-5.56,3.34,0,6.16.27c1.88.18,3.58.4,5.11.67s3.69.77,6.46,1.52v16.3a33,33,0,0,0-15.9-4.42,9.86,9.86,0,0,0-5.18,1.2,3.72,3.72,0,0,0-2,3.31,4.13,4.13,0,0,0,1.59,3.32A29.8,29.8,0,0,0,40.68,187q10,4,14.09,8.8A16.77,16.77,0,0,1,58.9,207.14Z" transform="translate(-11.79 -161.32)"/><path d="M65,226.52V180.79H84v45.73Z" transform="translate(-11.79 -161.32)"/><path d="M142.72,220.13q0,13.19-8.28,20.52T110.26,248a50.12,50.12,0,0,1-8.31-.67,22.81,22.81,0,0,1-5.76-1.52V230.9a25.33,25.33,0,0,0,6.7,2.85,25.6,25.6,0,0,0,6.83,1.08q6.39,0,10.23-3.09a9.94,9.94,0,0,0,3.84-8.17v-2.81h-.18a14.79,14.79,0,0,1-5.65,5,16.44,16.44,0,0,1-7.7,1.88q-8.85,0-14-6.14t-5.14-16.95a30.45,30.45,0,0,1,2.68-13.09,20.43,20.43,0,0,1,7.46-8.73,19.23,19.23,0,0,1,10.54-3q7.91,0,11.79,5.85h.18v-4.74h18.93ZM124.1,202.36a10.25,10.25,0,0,0-1.81-6.39,5.76,5.76,0,0,0-4.8-2.36,5.89,5.89,0,0,0-5.13,2.86,13.39,13.39,0,0,0-1.93,7.63,13.2,13.2,0,0,0,1.61,7,5.54,5.54,0,0,0,5.09,2.59,5.9,5.9,0,0,0,5.12-2.65,12.29,12.29,0,0,0,1.85-7.13Z" transform="translate(-11.79 -161.32)"/><path d="M181.53,226.52v-25c0-2.83-.43-4.86-1.27-6.1a4.67,4.67,0,0,0-4.13-1.85,4.49,4.49,0,0,0-3.85,1.92,8.22,8.22,0,0,0-1.38,4.91v26.08h-19V180.79h19v7.15h.18a16.22,16.22,0,0,1,6.12-6.1,16.74,16.74,0,0,1,8.35-2.16q15,0,15,18.93v27.91Z" transform="translate(-11.79 -161.32)"/><path d="M292.1,197.27q0,15.4-7,22.89t-21.69,7.48q-13.66,0-20.74-7.48t-7.08-22.53V162.48h19.38v35.86q0,6.16,2.3,9.49a7.53,7.53,0,0,0,6.59,3.33,7.61,7.61,0,0,0,6.59-3.13q2.25-3.12,2.25-9.24V162.48H292.1Z" transform="translate(-11.79 -161.32)"/><path d="M353.82,202.27a32.47,32.47,0,0,1-2.55,13.26,20.56,20.56,0,0,1-7.19,8.94,18.14,18.14,0,0,1-10.45,3.17q-8,0-12.19-5.85h-.18v25.76h-19V180.79h19V187h.18a16.1,16.1,0,0,1,5.89-5.38,17.06,17.06,0,0,1,8.22-1.94q8.85,0,13.55,5.89T353.82,202.27Zm-19.3.58a11.9,11.9,0,0,0-1.67-6.79,6.29,6.29,0,0,0-10.07.14,11.88,11.88,0,0,0-1.88,7.1v.89a13,13,0,0,0,1.61,6.92,5.29,5.29,0,0,0,4.82,2.59,6,6,0,0,0,5.32-2.83Q334.53,208,334.52,202.85Z" transform="translate(-11.79 -161.32)"/><path d="M380.65,205H365.38L363,162.48h20Z" transform="translate(-11.79 -161.32)"/><ellipse class="cls-1" cx="62.44" cy="7.85" rx="9.39" ry="7.85"/><circle class="cls-1" cx="361.14" cy="56.81" r="9.39"/></svg>