<svg id="Layer_1" data-name="Layer 1" xmlns="http://www.w3.org/2000/svg" viewBox="0 0 376.13 97.53"><defs><style>.cls-1{fill:#f20544;}</style></defs><title>signin_title</title><path d="M62.94,187.27a20.89,20.89,0,0,1-3.85,12.53,22.81,22.81,0,0,1-10.79,7.94,47.3,47.3,0,0,1-16.7,2.62,54.52,54.52,0,0,1-20.72-3.82V186.77a41.07,41.07,0,0,0,10,5.36,29.36,29.36,0,0,0,10.21,2,10,10,0,0,0,5.53-1.28,4.18,4.18,0,0,0,2-3.75,5,5,0,0,0-1-3.09,9.5,9.5,0,0,0-3-2.49,55.17,55.17,0,0,0-7.36-3.17Q9.86,173.69,9.87,158.75a20.21,20.21,0,0,1,8-16.72q8-6.25,21.33-6.26,3.76,0,6.94.3t5.76.75c1.72.31,4.15.88,7.26,1.71v18.36a37.11,37.11,0,0,0-17.9-5,11.12,11.12,0,0,0-5.84,1.36A4.2,4.2,0,0,0,33.16,157,4.68,4.68,0,0,0,35,160.74q1.78,1.48,7.47,3.85,11.2,4.53,15.86,9.91A18.85,18.85,0,0,1,62.94,187.27Z" transform="translate(-9.87 -135.77)"/><path d="M69.78,209.1V157.6H91.2v51.5Z" transform="translate(-9.87 -135.77)"/><path d="M157.35,201.91q0,14.84-9.33,23.11t-27.24,8.28a57.22,57.22,0,0,1-9.36-.76,25.44,25.44,0,0,1-6.48-1.71V214a32.36,32.36,0,0,0,15.24,4.43q7.18,0,11.51-3.47a11.21,11.21,0,0,0,4.33-9.21v-3.17h-.2a16.69,16.69,0,0,1-6.36,5.64,18.49,18.49,0,0,1-8.68,2.11q-10,0-15.74-6.92t-5.79-19.08a34.16,34.16,0,0,1,3-14.74,22.91,22.91,0,0,1,8.4-9.83,21.54,21.54,0,0,1,11.87-3.45q8.89,0,13.28,6.59h.2V157.6h21.33Zm-21-20a11.54,11.54,0,0,0-2-7.19,6.45,6.45,0,0,0-5.4-2.67,6.67,6.67,0,0,0-5.79,3.22,15.24,15.24,0,0,0-2.16,8.6,14.86,14.86,0,0,0,1.81,7.9,6.27,6.27,0,0,0,5.74,2.92,6.63,6.63,0,0,0,5.75-3,13.69,13.69,0,0,0,2.09-8Z" transform="translate(-9.87 -135.77)"/><path d="M201.05,209.1V181c0-3.19-.47-5.48-1.43-6.87A5.24,5.24,0,0,0,195,172a5,5,0,0,0-4.33,2.17,9.21,9.21,0,0,0-1.56,5.53V209.1H167.66V157.6h21.42v8.05h.2a18.28,18.28,0,0,1,6.9-6.87,18.75,18.75,0,0,1,9.4-2.44q16.9,0,16.9,21.33V209.1Z" transform="translate(-9.87 -135.77)"/><path d="M262.72,209.1V137h21.73V209.1Z" transform="translate(-9.87 -135.77)"/><path d="M330.07,209.1V181q0-4.78-1.43-6.87A5.26,5.26,0,0,0,324,172a5,5,0,0,0-4.32,2.17,9.21,9.21,0,0,0-1.56,5.53V209.1H296.67V157.6H318.1v8.05h.2a18.25,18.25,0,0,1,6.89-6.87,18.79,18.79,0,0,1,9.41-2.44q16.89,0,16.9,21.33V209.1Z" transform="translate(-9.87 -135.77)"/><path d="M383.33,184.81h-17.2L363.42,137H386Z" transform="translate(-9.87 -135.77)"/><ellipse class="cls-1" cx="70.76" cy="8.99" rx="10.58" ry="8.84"/><circle class="cls-1" cx="365.22" cy="63.1" r="10.58"/></svg>