<svg width="330" height="78" viewBox="0 0 330 78" fill="none" xmlns="http://www.w3.org/2000/svg">
<path d="M41.8114 41.554C41.8879 45.0841 40.8236 48.5447 38.7765 51.4218C36.6372 54.3116 33.6783 56.4914 30.2842 57.6779C26.0567 59.1494 21.5992 59.8497 17.1242 59.7455C11.5369 59.8137 5.99012 58.7888 0.796148 56.7284V41.1546C3.21627 42.9231 5.87156 44.3448 8.68506 45.3786C11.2488 46.3857 13.971 46.9295 16.7248 46.9848C18.2469 47.0712 19.7619 46.7202 21.0908 45.9732C21.5866 45.6613 21.9908 45.2234 22.2621 44.7043C22.5333 44.1851 22.662 43.6033 22.6349 43.0182C22.6503 42.1423 22.3792 41.2854 21.8628 40.5778C21.22 39.7749 20.4236 39.1082 19.5201 38.6167C17.6474 37.6434 15.7081 36.8041 13.7166 36.1054C4.57644 32.5913 0.00636916 26.912 0.00636916 19.0675C-0.0650399 16.5394 0.464878 14.0305 1.55252 11.7472C2.64015 9.46395 4.25442 7.47158 6.26248 5.93406C10.4451 2.63888 16.0475 0.994253 23.0697 1.00017C25.0456 1.00017 26.8677 1.08004 28.536 1.23977C30.2043 1.3995 31.7129 1.59472 33.0706 1.83432C34.4283 2.07391 36.3451 2.5176 38.8031 3.18314V17.6476C34.5081 15.1663 29.6531 13.8167 24.6936 13.7254C23.0928 13.6527 21.5027 14.021 20.0969 14.7902C19.5602 15.0701 19.1108 15.4921 18.7978 16.0101C18.4848 16.5281 18.3203 17.1222 18.3221 17.7275C18.3135 18.2942 18.4364 18.8553 18.6812 19.3665C18.926 19.8777 19.2861 20.3251 19.7331 20.6736C21.5691 21.9204 23.5547 22.9311 25.6431 23.6819C31.5591 26.0483 35.7268 28.6513 38.1465 31.4909C40.5746 34.2742 41.8809 37.861 41.8114 41.554Z" fill="black"/>
<path d="M47.2245 58.7516V18.1712H64.0849V58.7516H47.2245Z" fill="black"/>
<path d="M116.193 53.0812C116.193 60.8844 113.743 66.9541 108.845 71.2905C103.947 75.6269 96.7942 77.801 87.3878 77.8128C84.9175 77.8198 82.4509 77.6209 80.0136 77.2183C78.2582 76.994 76.5397 76.5405 74.9022 75.8694V62.6384C76.7519 63.7634 78.7545 64.6152 80.8478 65.1675C82.8154 65.7596 84.8543 66.082 86.9086 66.1259C90.6889 66.1259 93.7149 65.2119 95.9867 63.3838C97.0865 62.5301 97.9687 61.4281 98.561 60.168C99.1532 58.9079 99.4388 57.5255 99.3942 56.1339V53.6403H99.2345C97.9749 55.5278 96.2475 57.0565 94.2207 58.0772C92.1133 59.1823 89.7674 59.755 87.3878 59.7455C82.1522 59.7455 78.0111 57.9293 74.9644 54.2969C71.9176 50.6646 70.3972 45.6508 70.4032 39.2557C70.3261 35.2554 71.1384 31.2879 72.7814 27.6397C74.202 24.4776 76.4994 21.7891 79.4013 19.8928C82.1948 18.117 85.4445 17.1921 88.7544 17.2306C93.4339 17.2306 96.9214 18.961 99.2168 22.4218H99.3765V18.2156H116.175L116.193 53.0812ZM99.6693 37.3123C99.7781 35.2962 99.213 33.3013 98.0632 31.6418C97.5755 30.9743 96.9331 30.4351 96.1912 30.0703C95.4494 29.7056 94.6301 29.5262 93.8037 29.5476C92.8892 29.5353 91.9874 29.7633 91.1886 30.2087C90.3898 30.654 89.7218 31.3012 89.2514 32.0855C88.0151 34.1199 87.4184 36.4788 87.5387 38.8563C87.4316 41.0192 87.9261 43.1694 88.9674 45.0681C89.4406 45.8252 90.1111 46.4392 90.9068 46.8441C91.7026 47.249 92.5936 47.4296 93.4842 47.3664C94.3794 47.3958 95.2672 47.1951 96.0627 46.7833C96.8582 46.3716 97.5347 45.7627 98.0277 45.0148C99.2089 43.1232 99.7819 40.915 99.6693 38.6877V37.3123Z" fill="black"/>
<path d="M150.632 58.7516V36.5668C150.632 34.0555 150.251 32.2541 149.505 31.1537C149.084 30.5919 148.526 30.1465 147.885 29.8593C147.244 29.5721 146.54 29.4526 145.84 29.5121C145.174 29.4874 144.512 29.6304 143.915 29.9281C143.318 30.2258 142.805 30.6686 142.424 31.2158C141.564 32.5016 141.135 34.0275 141.199 35.5729V58.7161H124.339V18.1712H141.199V24.516H141.359C142.647 22.2538 144.523 20.383 146.79 19.1029C149.05 17.8278 151.605 17.1669 154.2 17.1862C163.073 17.1862 167.51 22.7856 167.51 33.9845V58.7516H150.632Z" fill="black"/>
<path d="M248.751 32.7954C248.751 41.906 246.681 48.6768 242.539 53.1078C238.398 57.5388 231.982 59.7514 223.292 59.7455C215.211 59.7455 209.076 57.5329 204.887 53.1078C200.699 48.6827 198.605 42.0184 198.605 33.1149V1.92303H215.802V33.7449C215.802 37.3891 216.483 40.1962 217.843 42.1663C218.482 43.1195 219.356 43.8922 220.38 44.4097C221.404 44.9273 222.545 45.1723 223.691 45.1213C224.821 45.1851 225.948 44.9643 226.97 44.479C227.991 43.9936 228.875 43.2594 229.539 42.3437C230.87 40.498 231.536 37.7648 231.536 34.1442V1.92303H248.751V32.7954Z" fill="black"/>
<path d="M303.521 37.2324C303.6 41.2699 302.829 45.2788 301.258 48.9992C299.927 52.1954 297.714 54.947 294.878 56.9325C292.149 58.8004 288.911 59.7826 285.605 59.7455C280.872 59.7455 277.266 58.0151 274.787 54.5542H274.628V77.4135H257.767V18.1712H274.628V23.6819H274.787C276.101 21.6772 277.899 20.0355 280.014 18.9077C282.263 17.7316 284.771 17.1396 287.308 17.1862C292.544 17.1862 296.552 18.9284 299.332 22.4129C302.113 25.8974 303.509 30.8372 303.521 37.2324ZM286.394 37.7471C286.515 35.6355 285.999 33.5364 284.912 31.7217C284.383 31.0345 283.701 30.4803 282.92 30.1028C282.139 29.7254 281.281 29.5351 280.413 29.5472C279.546 29.5592 278.693 29.7733 277.923 30.1723C277.153 30.5713 276.486 31.1443 275.976 31.8459C274.769 33.7171 274.185 35.9227 274.308 38.1464V38.9362C274.205 41.076 274.7 43.2024 275.737 45.0769C276.172 45.8135 276.801 46.417 277.555 46.822C278.309 47.2271 279.159 47.4184 280.014 47.3752C280.952 47.4102 281.883 47.1963 282.713 46.7552C283.542 46.3142 284.239 45.6617 284.735 44.8639C285.847 43.1661 286.4 40.7938 286.394 37.7471Z" fill="black"/>
<path d="M327.33 39.6549H313.779L311.667 1.92303H329.415L327.33 39.6549Z" fill="black"/>
<path d="M320.479 59.639C325.081 59.639 328.812 55.9084 328.812 51.3064C328.812 46.7045 325.081 42.9738 320.479 42.9738C315.877 42.9738 312.146 46.7045 312.146 51.3064C312.146 55.9084 315.877 59.639 320.479 59.639Z" fill="#F20544"/>
<path d="M55.668 15.5207C55.668 15.5207 43.8657 10.2726 45.1418 4.23658C45.3949 3.26763 45.907 2.38585 46.6231 1.68581C47.3393 0.985765 48.2325 0.493857 49.2069 0.262838C50.3468 -0.0658301 51.5567 -0.0635593 52.6954 0.269385C53.8341 0.602329 54.8546 1.25222 55.6379 2.14322C57.9735 -0.192395 60.341 -0.252737 62.0688 0.262838C63.0468 0.493205 63.9441 0.984372 64.6653 1.68409C65.3864 2.38381 65.9044 3.26592 66.1641 4.23658C67.4686 10.2726 55.668 15.5207 55.668 15.5207Z" fill="#F20544"/>
</svg>
