<svg width="335" height="88" viewBox="0 0 335 88" fill="none" xmlns="http://www.w3.org/2000/svg">
<path d="M47.2739 46.4329C47.3578 50.419 46.1556 54.3265 43.845 57.5778C41.4217 60.8395 38.074 63.2997 34.2351 64.6402C29.4576 66.3026 24.4193 67.092 19.3616 66.9706C13.0476 67.0471 6.77935 65.8929 0.907815 63.5728V45.9881C3.64142 47.9812 6.63877 49.5857 9.81409 50.7557C12.715 51.8845 15.7944 52.487 18.9074 52.5346C20.6248 52.6381 22.3354 52.2427 23.8326 51.3961C24.401 51.05 24.866 50.5579 25.1793 49.9713C25.4926 49.3846 25.6427 48.7248 25.6138 48.0606C25.6314 47.071 25.318 46.1038 24.7232 45.3121C23.9955 44.3974 23.0857 43.6432 22.0513 43.0974C19.9376 42.0001 17.7469 41.0577 15.4963 40.2778C5.16501 36.3286 0.00234356 29.9245 0.00828107 21.0654C-0.0781723 18.1986 0.523478 15.3528 1.76298 12.7657C3.00248 10.1785 4.84386 7.92507 7.1333 6.19361C11.8833 2.48752 18.2157 0.63151 26.1304 0.62558C28.3629 0.62558 30.4232 0.714529 32.3113 0.892421C34.1995 1.07031 35.9095 1.29268 37.4413 1.55952C38.9732 1.83525 41.1375 2.34224 43.9073 3.08049V19.411C39.057 16.6021 33.5708 15.0717 27.9651 14.9637C26.1531 14.8837 24.3539 15.3021 22.7638 16.1734C22.1536 16.4907 21.6429 16.97 21.2878 17.5584C20.9327 18.1469 20.7469 18.8218 20.751 19.5089C20.7482 20.1521 20.8947 20.7872 21.1791 21.3644C21.4634 21.9416 21.8778 22.4451 22.3897 22.8354C23.4466 23.7131 25.6643 24.8545 29.0427 26.2599C35.6928 28.946 40.4012 31.8842 43.1681 35.0744C45.9018 38.2199 47.3654 42.2689 47.2739 46.4329Z" fill="black"/>
<path d="M53.3658 65.8498V20.0425H72.443V65.8498H53.3658Z" fill="black"/>
<path d="M131.358 59.4546C131.358 68.2544 128.588 75.1062 123.048 80.0101C117.509 84.914 109.422 87.3689 98.7878 87.3748C95.9951 87.378 93.207 87.1519 90.4515 86.6988C88.469 86.4482 86.5284 85.9368 84.6802 85.1779V70.2082C88.807 72.6265 93.4716 73.9807 98.2534 74.1485C102.517 74.1485 105.934 73.1197 108.505 71.0621C109.749 70.0973 110.747 68.8521 111.417 67.4284C112.087 66.0046 112.411 64.4426 112.361 62.8701V60.0506H112.183C110.76 62.183 108.808 63.9112 106.518 65.0671C104.134 66.3143 101.48 66.9587 98.7878 66.9439C92.8502 66.9439 88.1774 64.8922 84.7693 60.7888C81.3612 56.6854 79.6422 51.0284 79.6126 43.8179C79.5167 39.3037 80.4294 34.8249 82.2844 30.7072C83.8859 27.1358 86.4831 24.1004 89.7657 21.9638C92.9137 19.9314 96.589 18.8646 100.337 18.8951C105.616 18.8951 109.558 20.849 112.165 24.7567H112.343V20.0426H131.34L131.358 59.4546ZM112.655 41.6654C112.787 39.3954 112.16 37.146 110.874 35.2701C110.326 34.5133 109.602 33.9014 108.764 33.4875C107.925 33.0737 106.999 32.8704 106.064 32.8953C105.029 32.8827 104.009 33.1403 103.105 33.6427C102.2 34.1451 101.443 34.8747 100.907 35.7593C99.5212 38.0624 98.8516 40.7249 98.9837 43.4087C98.8587 45.8549 99.4168 48.2876 100.596 50.4355C101.133 51.2896 101.892 51.9823 102.792 52.4397C103.693 52.897 104.7 53.102 105.708 53.0327C106.719 53.0632 107.721 52.8338 108.617 52.3666C109.514 51.8993 110.276 51.2099 110.829 50.3643C112.169 48.2407 112.819 45.7554 112.69 43.2486L112.655 41.6654Z" fill="black"/>
<path d="M170.278 65.8498V40.8559C170.278 38.0186 169.86 35.9817 169.005 34.7453C168.537 34.1065 167.913 33.5974 167.193 33.2659C166.473 32.9344 165.681 32.7916 164.89 32.8508C164.136 32.8199 163.387 32.9808 162.712 33.3184C162.038 33.656 161.46 34.1593 161.034 34.7809C160.057 36.2306 159.57 37.954 159.644 39.6996V65.8498H140.54V20.0425H159.618V27.2027H159.796C161.253 24.6484 163.377 22.5366 165.941 21.0921C168.492 19.6469 171.38 18.8984 174.313 18.9218C184.347 18.9218 189.365 25.2459 189.365 37.894V65.8498H170.278Z" fill="black"/>
<path d="M225.203 65.8498V1.7196H244.557V65.8498H225.203Z" fill="black"/>
<path d="M285.187 65.8498V40.8559C285.187 38.0215 284.763 35.9846 283.914 34.7453C283.443 34.1051 282.816 33.5952 282.093 33.2637C281.37 32.9323 280.574 32.7902 279.781 32.8508C279.029 32.8214 278.281 32.983 277.608 33.3206C276.935 33.6581 276.359 34.1606 275.934 34.7809C274.957 36.2306 274.47 37.954 274.544 39.6996V65.8498H255.44V20.0425H274.526V27.2027H274.704C276.159 24.6488 278.279 22.5368 280.841 21.0921C283.396 19.647 286.286 18.8985 289.222 18.9218C299.25 18.9218 304.267 25.2459 304.273 37.894V65.8498H285.187Z" fill="black"/>
<path d="M332.622 44.2448H317.303L314.89 1.7196H335L332.622 44.2448Z" fill="black"/>
<path d="M62.9178 16.1823C62.9178 16.1823 51.0724 10.922 52.3531 4.87186C52.6072 3.90065 53.1211 3.01682 53.8399 2.31514C54.5586 1.61346 55.4551 1.12041 56.4331 0.888848C57.5772 0.559413 58.7915 0.561689 59.9343 0.89541C61.0771 1.22913 62.1013 1.88053 62.8875 2.77362C65.2316 0.432553 67.6078 0.37207 69.3419 0.888848C70.3235 1.11975 71.224 1.61207 71.9478 2.31342C72.6716 3.01477 73.1914 3.89894 73.4521 4.87186C74.7613 10.922 62.9178 16.1823 62.9178 16.1823Z" fill="#F20544"/>
<path d="M325.283 66.1611C330.487 66.1611 334.706 61.9479 334.706 56.7506C334.706 51.5533 330.487 47.3401 325.283 47.3401C320.079 47.3401 315.86 51.5533 315.86 56.7506C315.86 61.9479 320.079 66.1611 325.283 66.1611Z" fill="#F20544"/>
</svg>
