<svg width="331" height="70" viewBox="0 0 331 70" fill="none" xmlns="http://www.w3.org/2000/svg">
<path d="M54.8215 68.1196V0H73.9747V68.1196H54.8215Z" fill="black"/>
<path d="M84.1087 68.1196V22.097H103.262V68.1196H84.1087Z" fill="black"/>
<path d="M143.829 68.1196V62.7579H143.644C142.071 64.8076 140.015 66.4365 137.66 67.4995C135.393 68.6152 132.904 69.2082 130.377 69.2347C126.704 69.3118 123.091 68.298 119.994 66.3218C116.976 64.366 114.629 61.5323 113.269 58.2021C111.702 54.2937 110.944 50.1081 111.041 45.8984C110.949 41.4276 111.849 36.992 113.675 32.9102C115.269 29.3207 117.862 26.2654 121.144 24.1088C124.342 22.0009 128.103 20.9096 131.933 20.9782C133.711 20.9527 135.482 21.2252 137.17 21.7842C138.677 22.2684 140.091 23.0018 141.354 23.9537C142.349 24.6346 143.133 25.5789 143.621 26.6808H143.807V0H162.96V68.1196H143.829ZM144.232 43.7316C144.369 41.4475 143.724 39.1849 142.403 37.3164C141.786 36.5612 140.998 35.9632 140.105 35.5714C139.211 35.1797 138.237 35.0054 137.264 35.0628C136.29 35.1203 135.343 35.4078 134.502 35.9018C133.661 36.3958 132.949 37.0822 132.424 37.9048C131.015 40.1892 130.334 42.848 130.471 45.5285C130.471 52.0371 132.738 55.291 137.227 55.291C138.227 55.3108 139.216 55.0801 140.104 54.6199C140.991 54.1597 141.75 53.4847 142.31 52.6563C143.579 50.8902 144.231 48.3481 144.231 45.0018L144.232 43.7316Z" fill="black"/>
<path d="M188.705 50.5475C188.874 51.5339 189.269 52.4675 189.861 53.2745C190.453 54.0814 191.224 54.7395 192.114 55.1966C194.499 56.412 197.157 56.9886 199.831 56.8703C204.191 56.9072 208.511 56.0307 212.511 54.2973V66.4459C207.863 68.3057 202.233 69.2356 195.621 69.2356C187.594 69.2356 181.344 67.1806 176.871 63.0706C172.409 58.98 170.177 53.3082 170.177 46.1169C170.086 41.5834 171.097 37.0956 173.12 33.038C175.075 29.2815 178.108 26.1948 181.829 24.174C185.724 22.0189 190.11 20.9088 194.56 20.9519C198.81 20.8326 203.021 21.7924 206.8 23.7416C210.094 25.5162 212.781 28.2361 214.517 31.5512C216.347 35.2015 217.252 39.2459 217.151 43.3281V50.5185L188.705 50.5475ZM200.203 40.5348C200.203 35.2357 198.313 32.5702 194.5 32.5702C193.707 32.5751 192.927 32.7757 192.229 33.1541C191.532 33.5326 190.939 34.0772 190.502 34.7397C189.338 36.4431 188.683 38.4422 188.612 40.504L200.203 40.5348Z" fill="black"/>
<path d="M250.131 68.1178V3.65729H269.533V68.1178H250.131Z" fill="black"/>
<path d="M310.936 68.1205V43.0145C310.936 40.1631 310.502 38.1187 309.667 36.8785C309.192 36.2389 308.56 35.7321 307.833 35.4065C307.106 35.0809 306.307 34.9475 305.514 35.019C304.76 34.9967 304.012 35.1603 303.337 35.4953C302.661 35.8304 302.078 36.3266 301.64 36.9401C300.661 38.4033 300.173 40.1396 300.245 41.8984V68.1486H281.091V22.0924H300.245V29.2828H300.43C301.891 26.7164 304.022 24.5954 306.595 23.1468C309.156 21.6955 312.056 20.9491 314.999 20.9837C325.071 20.9837 330.103 27.3369 330.092 40.0435V68.1223L310.936 68.1205Z" fill="black"/>
<path d="M93.747 19.5557C93.747 19.5557 81.689 14.194 82.9927 8.02717C83.2513 7.03723 83.7745 6.13635 84.5061 5.42114C85.2378 4.70593 86.1503 4.20336 87.1459 3.96734C88.3105 3.63155 89.5466 3.63387 90.7099 3.97403C91.8733 4.31418 92.9159 4.97815 93.7162 5.88846C96.1024 3.50224 98.5212 3.44059 100.286 3.96734C101.286 4.2027 102.202 4.70451 102.939 5.41939C103.676 6.13427 104.205 7.03548 104.47 8.02717C105.803 14.194 93.747 19.5557 93.747 19.5557Z" fill="#F20544"/>
<path d="M48.1225 47.4904C48.2079 51.5535 46.9842 55.5363 44.632 58.8503C42.1652 62.1749 38.7574 64.6826 34.8496 66.0489C29.9863 67.7434 24.8576 68.548 19.7091 68.4242C13.2818 68.5022 6.90094 67.3258 0.923989 64.9609V47.0371C3.70667 49.0686 6.75784 50.704 9.99016 51.8966C12.9431 53.0472 16.0779 53.6613 19.2467 53.7098C20.9949 53.8154 22.7363 53.4123 24.2603 52.5494C24.8389 52.1966 25.3124 51.695 25.6313 51.0971C25.9502 50.4991 26.1029 49.8266 26.0735 49.1495C26.0915 48.1409 25.7725 47.155 25.1669 46.3481C24.4261 45.4156 23.5 44.647 22.4471 44.0906C20.2955 42.9721 18.0653 42.0116 15.7744 41.2166C5.25762 37.1913 0.00226137 30.6636 0.00830549 21.6337C-0.0797 18.7116 0.532752 15.8109 1.79451 13.1739C3.05626 10.5368 4.9307 8.23992 7.26124 6.47506C12.0965 2.69749 18.5426 0.805689 26.5994 0.799644C28.872 0.799644 30.9693 0.890309 32.8913 1.07163C34.8133 1.25296 36.554 1.47961 38.1134 1.7516C39.6728 2.03265 41.8759 2.54941 44.6955 3.3019V19.9474C39.758 17.0843 34.1734 15.5244 28.467 15.4143C26.6225 15.3327 24.7911 15.7592 23.1724 16.6473C22.5512 16.9708 22.0313 17.4593 21.6698 18.0591C21.3083 18.6589 21.1193 19.3468 21.1234 20.0471C21.1206 20.7028 21.2698 21.3502 21.5592 21.9385C21.8486 22.5268 22.2705 23.04 22.7916 23.4379C23.8674 24.3324 26.1249 25.4959 29.564 26.9283C36.3334 29.6663 41.1264 32.6612 43.943 35.9129C46.7258 39.119 48.2157 43.2461 48.1225 47.4904Z" fill="black"/>
</svg>
